<?xml version="1.0" encoding="utf-8" ?>
<svg baseProfile="full" height="1500px" version="1.1" width="2000px" xmlns="http://www.w3.org/2000/svg" xmlns:ev="http://www.w3.org/2001/xml-events" xmlns:xlink="http://www.w3.org/1999/xlink"><defs><marker id="id1" markerHeight="10" markerWidth="10" orient="auto" refX="10" refY="5"><path d="M0,0 L10,5 L0,10 z" fill="#2c3e50" /></marker></defs><rect fill="#ecf0f1" height="250px" stroke="#7f8c8d" stroke-width="1" width="1850px" x="20" y="0" /><text fill="#2c3e50" font-size="28px" font-weight="bold" x="40" y="40">Branch</text><rect fill="#ecf0f1" height="250px" stroke="#7f8c8d" stroke-width="1" width="1850px" x="20" y="250" /><text fill="#2c3e50" font-size="28px" font-weight="bold" x="40" y="290">Credit Risk</text><rect fill="#ecf0f1" height="250px" stroke="#7f8c8d" stroke-width="1" width="1850px" x="20" y="500" /><text fill="#2c3e50" font-size="28px" font-weight="bold" x="40" y="540">Provisioning</text><rect fill="#ecf0f1" height="250px" stroke="#7f8c8d" stroke-width="1" width="1850px" x="20" y="750" /><text fill="#2c3e50" font-size="28px" font-weight="bold" x="40" y="790">Finance</text><rect fill="#ecf0f1" height="250px" stroke="#7f8c8d" stroke-width="1" width="1850px" x="20" y="1000" /><text fill="#2c3e50" font-size="28px" font-weight="bold" x="40" y="1040">Management</text><rect fill="#ffffff" height="120px" rx="8" ry="8" stroke="#2c3e50" stroke-width="2" width="260px" x="100" y="50" /><text fill="#2c3e50" font-size="18px" x="120" y="90">Start:</text><text fill="#2c3e50" font-size="18px" x="120" y="112">Daily Portfolio Extract</text><rect fill="#ffffff" height="120px" rx="8" ry="8" stroke="#2c3e50" stroke-width="2" width="260px" x="100" y="320" /><text fill="#2c3e50" font-size="18px" x="120" y="360">Send Portfolio Data</text><rect fill="#ffffff" height="120px" rx="8" ry="8" stroke="#2c3e50" stroke-width="2" width="260px" x="500" y="320" /><text fill="#2c3e50" font-size="18px" x="520" y="360">Run EWS &amp;</text><text fill="#2c3e50" font-size="18px" x="520" y="382">Delinquency Rules</text><polygon fill="#fdf6e3" points="910,320 970,380 910,440 850,380" stroke="#b58900" stroke-width="2" /><text fill="#2c3e50" font-size="16px" x="870" y="385">Flagged?</text><rect fill="#ffffff" height="120px" rx="8" ry="8" stroke="#2c3e50" stroke-width="2" width="260px" x="500" y="600" /><text fill="#2c3e50" font-size="18px" x="520" y="640">Update</text><text fill="#2c3e50" font-size="18px" x="520" y="662">Watchlist</text><rect fill="#ffffff" height="120px" rx="8" ry="8" stroke="#2c3e50" stroke-width="2" width="260px" x="850" y="600" /><text fill="#2c3e50" font-size="18px" x="870" y="640">Classify Exposure</text><text fill="#2c3e50" font-size="18px" x="870" y="662">(P / UP / NPL)</text><polygon fill="#fdf6e3" points="1260,600 1320,660 1260,720 1200,660" stroke="#b58900" stroke-width="2" /><text fill="#2c3e50" font-size="16px" x="1220" y="665">NPL?</text><rect fill="#ffffff" height="120px" rx="8" ry="8" stroke="#2c3e50" stroke-width="2" width="260px" x="500" y="850" /><text fill="#2c3e50" font-size="18px" x="520" y="890">Calculate PD/LGD</text><text fill="#2c3e50" font-size="18px" x="520" y="912">Expected Loss</text><rect fill="#ffffff" height="120px" rx="8" ry="8" stroke="#2c3e50" stroke-width="2" width="260px" x="850" y="850" /><text fill="#2c3e50" font-size="18px" x="870" y="890">Prepare Provision</text><text fill="#2c3e50" font-size="18px" x="870" y="912">Memo</text><rect fill="#ffffff" height="120px" rx="8" ry="8" stroke="#2c3e50" stroke-width="2" width="260px" x="500" y="1100" /><text fill="#2c3e50" font-size="18px" x="520" y="1140">Book Provision</text><text fill="#2c3e50" font-size="18px" x="520" y="1162">Entry</text><polygon fill="#fdf6e3" points="910,1100 970,1160 910,1220 850,1160" stroke="#b58900" stroke-width="2" /><text fill="#2c3e50" font-size="16px" x="870" y="1165">Approval</text><text fill="#2c3e50" font-size="16px" x="870" y="1187">Needed?</text><rect fill="#ffffff" height="120px" rx="8" ry="8" stroke="#2c3e50" stroke-width="2" width="260px" x="1200" y="1100" /><text fill="#2c3e50" font-size="18px" x="1220" y="1140">Management</text><text fill="#2c3e50" font-size="18px" x="1220" y="1162">Approval</text><circle cx="1600" cy="1150" fill="#eef7ff" r="50" stroke="#2980b9" stroke-width="2" /><text fill="#2c3e50" font-size="16px" x="1560" y="1155">End</text><line fill="none" marker-end="url(#arrow)" stroke="#2c3e50" stroke-width="2" x1="230" x2="230" y1="170" y2="320" /><line fill="none" marker-end="url(#arrow)" stroke="#2c3e50" stroke-width="2" x1="230" x2="630" y1="440" y2="320" /><line fill="none" marker-end="url(#arrow)" stroke="#2c3e50" stroke-width="2" x1="630" x2="980" y1="440" y2="320" /><line fill="none" marker-end="url(#arrow)" stroke="#2c3e50" stroke-width="2" x1="980" x2="630" y1="380" y2="600" /><line fill="none" marker-end="url(#arrow)" stroke="#2c3e50" stroke-width="2" x1="980" x2="630" y1="380" y2="600" /><line fill="none" marker-end="url(#arrow)" stroke="#2c3e50" stroke-width="2" x1="630" x2="980" y1="720" y2="600" /><line fill="none" marker-end="url(#arrow)" stroke="#2c3e50" stroke-width="2" x1="980" x2="1330" y1="720" y2="600" /><line fill="none" marker-end="url(#arrow)" stroke="#2c3e50" stroke-width="2" x1="1330" x2="630" y1="660" y2="850" /><line fill="none" marker-end="url(#arrow)" stroke="#2c3e50" stroke-width="2" x1="630" x2="980" y1="970" y2="850" /><line fill="none" marker-end="url(#arrow)" stroke="#2c3e50" stroke-width="2" x1="980" x2="630" y1="970" y2="1100" /><line fill="none" marker-end="url(#arrow)" stroke="#2c3e50" stroke-width="2" x1="630" x2="980" y1="1220" y2="1100" /><line fill="none" marker-end="url(#arrow)" stroke="#2c3e50" stroke-width="2" x1="980" x2="1330" y1="1160" y2="1100" /><line fill="none" marker-end="url(#arrow)" stroke="#2c3e50" stroke-width="2" x1="1330" x2="1680" y1="1160" y2="1100" /></svg>